solid OpenSCAD_Model
  facet normal 1 0 0
    outer loop
      vertex 130 23 32
      vertex 130 24.5 2
      vertex 130 24.5 32
    endloop
  endfacet
  facet normal 1 0 0
    outer loop
      vertex 130 24.5 2
      vertex 130 23 32
      vertex 130 23 2
    endloop
  endfacet
  facet normal 1 0 0
    outer loop
      vertex 130 0 32
      vertex 130 1.5 2
      vertex 130 1.5 32
    endloop
  endfacet
  facet normal 1 0 0
    outer loop
      vertex 130 1.5 2
      vertex 130 0 32
      vertex 130 0 2
    endloop
  endfacet
  facet normal 0 0 1
    outer loop
      vertex 0 24.5 32
      vertex 130 23 32
      vertex 130 24.5 32
    endloop
  endfacet
  facet normal 0 0 1
    outer loop
      vertex 130 23 32
      vertex 0 24.5 32
      vertex 0 23 32
    endloop
  endfacet
  facet normal 0 0 1
    outer loop
      vertex 0 1.5 32
      vertex 130 0 32
      vertex 130 1.5 32
    endloop
  endfacet
  facet normal 0 0 1
    outer loop
      vertex 130 0 32
      vertex 0 1.5 32
      vertex 0 0 32
    endloop
  endfacet
  facet normal 0 0 -1
    outer loop
      vertex -60 -8 0
      vertex 150 42 0
      vertex 150 -8 0
    endloop
  endfacet
  facet normal 0 0 -1
    outer loop
      vertex 150 42 0
      vertex -60 -8 0
      vertex -60 42 0
    endloop
  endfacet
  facet normal -1 0 0
    outer loop
      vertex 0 23 2
      vertex 0 24.5 32
      vertex 0 24.5 2
    endloop
  endfacet
  facet normal -1 0 0
    outer loop
      vertex 0 24.5 32
      vertex 0 23 2
      vertex 0 23 32
    endloop
  endfacet
  facet normal -1 0 0
    outer loop
      vertex 0 0 2
      vertex 0 1.5 32
      vertex 0 1.5 2
    endloop
  endfacet
  facet normal -1 0 0
    outer loop
      vertex 0 1.5 32
      vertex 0 0 2
      vertex 0 0 32
    endloop
  endfacet
  facet normal 0 1 0
    outer loop
      vertex 130 24.5 2
      vertex 0 24.5 32
      vertex 130 24.5 32
    endloop
  endfacet
  facet normal 0 1 0
    outer loop
      vertex 0 24.5 32
      vertex 130 24.5 2
      vertex 0 24.5 2
    endloop
  endfacet
  facet normal 0 -1 0
    outer loop
      vertex 0 0 2
      vertex 130 0 32
      vertex 0 0 32
    endloop
  endfacet
  facet normal 0 -1 0
    outer loop
      vertex 130 0 32
      vertex 0 0 2
      vertex 130 0 2
    endloop
  endfacet
  facet normal 0 0 1
    outer loop
      vertex 0 23 2
      vertex 130 1.5 2
      vertex 130 23 2
    endloop
  endfacet
  facet normal 0 0 1
    outer loop
      vertex 130 1.5 2
      vertex 0 23 2
      vertex 0 1.5 2
    endloop
  endfacet
  facet normal 0 0 1
    outer loop
      vertex 130 23 2
      vertex 150 42 2
      vertex 130 24.5 2
    endloop
  endfacet
  facet normal 0 0 1
    outer loop
      vertex 150 42 2
      vertex 0 24.5 2
      vertex 130 24.5 2
    endloop
  endfacet
  facet normal 0 0 1
    outer loop
      vertex -60 42 2
      vertex 0 23 2
      vertex 0 24.5 2
    endloop
  endfacet
  facet normal 0 0 1
    outer loop
      vertex 0 23 2
      vertex -60 -8 2
      vertex 0 1.5 2
    endloop
  endfacet
  facet normal 0 0 1
    outer loop
      vertex 0 23 2
      vertex -60 42 2
      vertex -60 -8 2
    endloop
  endfacet
  facet normal 0 0 1
    outer loop
      vertex -60 42 2
      vertex 0 24.5 2
      vertex 150 42 2
    endloop
  endfacet
  facet normal 0 0 1
    outer loop
      vertex 150 42 2
      vertex 130 23 2
      vertex 150 -8 2
    endloop
  endfacet
  facet normal 0 0 1
    outer loop
      vertex 130 1.5 2
      vertex 150 -8 2
      vertex 130 23 2
    endloop
  endfacet
  facet normal 0 0 1
    outer loop
      vertex 130 0 2
      vertex 150 -8 2
      vertex 130 1.5 2
    endloop
  endfacet
  facet normal 0 0 1
    outer loop
      vertex 0 0 2
      vertex 150 -8 2
      vertex 130 0 2
    endloop
  endfacet
  facet normal 0 0 1
    outer loop
      vertex 0 0 2
      vertex -60 -8 2
      vertex 150 -8 2
    endloop
  endfacet
  facet normal 0 0 1
    outer loop
      vertex 0 1.5 2
      vertex -60 -8 2
      vertex 0 0 2
    endloop
  endfacet
  facet normal 0 -1 0
    outer loop
      vertex 0 23 2
      vertex 130 23 32
      vertex 0 23 32
    endloop
  endfacet
  facet normal 0 -1 0
    outer loop
      vertex 130 23 32
      vertex 0 23 2
      vertex 130 23 2
    endloop
  endfacet
  facet normal 0 1 0
    outer loop
      vertex 130 1.5 2
      vertex 0 1.5 32
      vertex 130 1.5 32
    endloop
  endfacet
  facet normal 0 1 0
    outer loop
      vertex 0 1.5 32
      vertex 130 1.5 2
      vertex 0 1.5 2
    endloop
  endfacet
  facet normal 1 0 0
    outer loop
      vertex 150 -8 2
      vertex 150 42 0
      vertex 150 42 2
    endloop
  endfacet
  facet normal 1 0 0
    outer loop
      vertex 150 42 0
      vertex 150 -8 2
      vertex 150 -8 0
    endloop
  endfacet
  facet normal 0 1 0
    outer loop
      vertex 150 42 0
      vertex -60 42 2
      vertex 150 42 2
    endloop
  endfacet
  facet normal 0 1 0
    outer loop
      vertex -60 42 2
      vertex 150 42 0
      vertex -60 42 0
    endloop
  endfacet
  facet normal 0 -1 0
    outer loop
      vertex -60 -8 0
      vertex 150 -8 2
      vertex -60 -8 2
    endloop
  endfacet
  facet normal 0 -1 0
    outer loop
      vertex 150 -8 2
      vertex -60 -8 0
      vertex 150 -8 0
    endloop
  endfacet
  facet normal -1 0 0
    outer loop
      vertex -60 -8 0
      vertex -60 42 2
      vertex -60 42 0
    endloop
  endfacet
  facet normal -1 0 0
    outer loop
      vertex -60 42 2
      vertex -60 -8 0
      vertex -60 -8 2
    endloop
  endfacet
endsolid OpenSCAD_Model
